<mxfile host="app.diagrams.net" modified="2021-03-12T20:34:48.305Z" agent="5.0 (Windows NT 10.0; Win64; x64) AppleWebKit/537.36 (KHTML, like Gecko) Chrome/88.0.4324.190 Safari/537.36" etag="Tuct6JB-niv4jz6RGHaa" version="14.4.7" type="github" pages="2">
  <diagram id="rwmdeR6lUxczMXH-JLez" name="Telepes">
    <mxGraphModel dx="1422" dy="794" grid="1" gridSize="10" guides="1" tooltips="1" connect="1" arrows="1" fold="1" page="1" pageScale="1" pageWidth="1654" pageHeight="1169" math="0" shadow="0">
      <root>
        <mxCell id="gCz3GvJ6F4Sdn2LdOEMv-0" />
        <mxCell id="gCz3GvJ6F4Sdn2LdOEMv-1" parent="gCz3GvJ6F4Sdn2LdOEMv-0" />
        <mxCell id="gCz3GvJ6F4Sdn2LdOEMv-2" value="Telepes mozog teleportkapun keresztÃ¼l" style="shape=umlFrame;whiteSpace=wrap;html=1;width=170;height=30;" vertex="1" parent="gCz3GvJ6F4Sdn2LdOEMv-1">
          <mxGeometry x="40" y="40" width="700" height="430" as="geometry" />
        </mxCell>
        <mxCell id="gCz3GvJ6F4Sdn2LdOEMv-3" value="t: Telepes" style="shape=umlLifeline;perimeter=lifelinePerimeter;whiteSpace=wrap;html=1;container=1;collapsible=0;recursiveResize=0;outlineConnect=0;" vertex="1" parent="gCz3GvJ6F4Sdn2LdOEMv-1">
          <mxGeometry x="120" y="80" width="100" height="360" as="geometry" />
        </mxCell>
        <mxCell id="gCz3GvJ6F4Sdn2LdOEMv-4" value="a: Aszteroida" style="shape=umlLifeline;perimeter=lifelinePerimeter;whiteSpace=wrap;html=1;container=1;collapsible=0;recursiveResize=0;outlineConnect=0;" vertex="1" parent="gCz3GvJ6F4Sdn2LdOEMv-1">
          <mxGeometry x="240" y="80" width="100" height="360" as="geometry" />
        </mxCell>
        <mxCell id="gCz3GvJ6F4Sdn2LdOEMv-5" value="" style="html=1;points=[];perimeter=orthogonalPerimeter;" vertex="1" parent="gCz3GvJ6F4Sdn2LdOEMv-4">
          <mxGeometry x="45" y="210" width="10" height="40" as="geometry" />
        </mxCell>
        <mxCell id="gCz3GvJ6F4Sdn2LdOEMv-6" value="2. HajoElhagy (t)" style="html=1;verticalAlign=bottom;endArrow=block;entryX=0.733;entryY=0;entryDx=0;entryDy=0;entryPerimeter=0;exitX=1;exitY=0.388;exitDx=0;exitDy=0;exitPerimeter=0;" edge="1" parent="gCz3GvJ6F4Sdn2LdOEMv-1" source="gCz3GvJ6F4Sdn2LdOEMv-27" target="gCz3GvJ6F4Sdn2LdOEMv-5">
          <mxGeometry x="0.0473" relative="1" as="geometry">
            <mxPoint x="170.7" y="140" as="sourcePoint" />
            <mxPoint as="offset" />
          </mxGeometry>
        </mxCell>
        <mxCell id="gCz3GvJ6F4Sdn2LdOEMv-7" value="" style="html=1;verticalAlign=bottom;endArrow=open;dashed=1;endSize=8;exitX=1.2;exitY=0.987;exitDx=0;exitDy=0;exitPerimeter=0;" edge="1" parent="gCz3GvJ6F4Sdn2LdOEMv-1" source="gCz3GvJ6F4Sdn2LdOEMv-5" target="gCz3GvJ6F4Sdn2LdOEMv-27">
          <mxGeometry relative="1" as="geometry">
            <mxPoint x="176.2" y="180" as="targetPoint" />
            <mxPoint x="343.2" y="172" as="sourcePoint" />
            <Array as="points">
              <mxPoint x="230" y="329" />
            </Array>
          </mxGeometry>
        </mxCell>
        <mxCell id="gCz3GvJ6F4Sdn2LdOEMv-8" value="3. HajoErkezik (t)" style="html=1;verticalAlign=bottom;endArrow=block;exitX=1.2;exitY=0.419;exitDx=0;exitDy=0;exitPerimeter=0;" edge="1" parent="gCz3GvJ6F4Sdn2LdOEMv-1">
          <mxGeometry relative="1" as="geometry">
            <mxPoint x="178.2" y="214.75" as="sourcePoint" />
            <mxPoint x="410.7" y="214.75" as="targetPoint" />
          </mxGeometry>
        </mxCell>
        <mxCell id="gCz3GvJ6F4Sdn2LdOEMv-9" value="" style="html=1;points=[];perimeter=orthogonalPerimeter;" vertex="1" parent="gCz3GvJ6F4Sdn2LdOEMv-1">
          <mxGeometry x="165" y="300" width="10" height="30" as="geometry" />
        </mxCell>
        <mxCell id="gCz3GvJ6F4Sdn2LdOEMv-10" value="" style="html=1;points=[];perimeter=orthogonalPerimeter;" vertex="1" parent="gCz3GvJ6F4Sdn2LdOEMv-1">
          <mxGeometry x="165" y="160" width="10" height="250" as="geometry" />
        </mxCell>
        <mxCell id="gCz3GvJ6F4Sdn2LdOEMv-11" value="1. Mozog(tp)" style="html=1;verticalAlign=bottom;endArrow=block;entryX=0.067;entryY=0.008;entryDx=0;entryDy=0;entryPerimeter=0;" edge="1" parent="gCz3GvJ6F4Sdn2LdOEMv-1" source="gCz3GvJ6F4Sdn2LdOEMv-14" target="gCz3GvJ6F4Sdn2LdOEMv-10">
          <mxGeometry x="-0.0048" relative="1" as="geometry">
            <mxPoint x="30" y="162" as="sourcePoint" />
            <mxPoint as="offset" />
          </mxGeometry>
        </mxCell>
        <mxCell id="gCz3GvJ6F4Sdn2LdOEMv-12" value="" style="html=1;verticalAlign=bottom;endArrow=open;dashed=1;endSize=8;exitX=0;exitY=0.996;exitDx=0;exitDy=0;exitPerimeter=0;" edge="1" parent="gCz3GvJ6F4Sdn2LdOEMv-1" source="gCz3GvJ6F4Sdn2LdOEMv-10" target="gCz3GvJ6F4Sdn2LdOEMv-14">
          <mxGeometry x="-0.1098" y="-55" relative="1" as="geometry">
            <mxPoint x="40" y="388" as="targetPoint" />
            <Array as="points" />
            <mxPoint as="offset" />
          </mxGeometry>
        </mxCell>
        <mxCell id="gCz3GvJ6F4Sdn2LdOEMv-13" value="" style="html=1;verticalAlign=bottom;endArrow=open;dashed=1;endSize=8;exitX=0.2;exitY=1.008;exitDx=0;exitDy=0;exitPerimeter=0;" edge="1" parent="gCz3GvJ6F4Sdn2LdOEMv-1" source="gCz3GvJ6F4Sdn2LdOEMv-16">
          <mxGeometry x="-0.0947" relative="1" as="geometry">
            <mxPoint x="177" y="391" as="targetPoint" />
            <mxPoint x="510" y="375" as="sourcePoint" />
            <mxPoint as="offset" />
          </mxGeometry>
        </mxCell>
        <mxCell id="gCz3GvJ6F4Sdn2LdOEMv-14" value="Player" style="shape=umlLifeline;participant=umlActor;perimeter=lifelinePerimeter;whiteSpace=wrap;html=1;container=1;collapsible=0;recursiveResize=0;verticalAlign=top;spacingTop=36;outlineConnect=0;" vertex="1" parent="gCz3GvJ6F4Sdn2LdOEMv-1">
          <mxGeometry x="60" y="80" width="20" height="350" as="geometry" />
        </mxCell>
        <mxCell id="gCz3GvJ6F4Sdn2LdOEMv-15" value="tp: Teleportkapu" style="shape=umlLifeline;perimeter=lifelinePerimeter;whiteSpace=wrap;html=1;container=1;collapsible=0;recursiveResize=0;outlineConnect=0;" vertex="1" parent="gCz3GvJ6F4Sdn2LdOEMv-1">
          <mxGeometry x="360" y="80" width="100" height="370" as="geometry" />
        </mxCell>
        <mxCell id="gCz3GvJ6F4Sdn2LdOEMv-16" value="" style="html=1;points=[];perimeter=orthogonalPerimeter;" vertex="1" parent="gCz3GvJ6F4Sdn2LdOEMv-15">
          <mxGeometry x="45" y="130" width="10" height="180" as="geometry" />
        </mxCell>
        <mxCell id="gCz3GvJ6F4Sdn2LdOEMv-17" value="par: Teleportkapu" style="shape=umlLifeline;perimeter=lifelinePerimeter;whiteSpace=wrap;html=1;container=1;collapsible=0;recursiveResize=0;outlineConnect=0;" vertex="1" parent="gCz3GvJ6F4Sdn2LdOEMv-1">
          <mxGeometry x="480" y="80" width="100" height="360" as="geometry" />
        </mxCell>
        <mxCell id="gCz3GvJ6F4Sdn2LdOEMv-18" value="" style="html=1;points=[];perimeter=orthogonalPerimeter;" vertex="1" parent="gCz3GvJ6F4Sdn2LdOEMv-17">
          <mxGeometry x="45" y="150" width="10" height="150" as="geometry" />
        </mxCell>
        <mxCell id="gCz3GvJ6F4Sdn2LdOEMv-19" value="a2: Aszteroida" style="shape=umlLifeline;perimeter=lifelinePerimeter;whiteSpace=wrap;html=1;container=1;collapsible=0;recursiveResize=0;outlineConnect=0;" vertex="1" parent="gCz3GvJ6F4Sdn2LdOEMv-1">
          <mxGeometry x="600" y="80" width="100" height="360" as="geometry" />
        </mxCell>
        <mxCell id="gCz3GvJ6F4Sdn2LdOEMv-20" value="" style="html=1;points=[];perimeter=orthogonalPerimeter;" vertex="1" parent="gCz3GvJ6F4Sdn2LdOEMv-19">
          <mxGeometry x="45" y="160" width="10" height="130" as="geometry" />
        </mxCell>
        <mxCell id="gCz3GvJ6F4Sdn2LdOEMv-21" value="2 : HajoTeleportErkezik(t)" style="html=1;verticalAlign=bottom;endArrow=block;" edge="1" parent="gCz3GvJ6F4Sdn2LdOEMv-1">
          <mxGeometry width="80" relative="1" as="geometry">
            <mxPoint x="421.2" y="230" as="sourcePoint" />
            <mxPoint x="526.2" y="230" as="targetPoint" />
            <Array as="points">
              <mxPoint x="491.2" y="230" />
            </Array>
          </mxGeometry>
        </mxCell>
        <mxCell id="gCz3GvJ6F4Sdn2LdOEMv-22" value="3 : HajoErkezik(t)" style="html=1;verticalAlign=bottom;endArrow=block;entryX=0.31;entryY=0.002;entryDx=0;entryDy=0;entryPerimeter=0;exitX=1.069;exitY=0.109;exitDx=0;exitDy=0;exitPerimeter=0;" edge="1" parent="gCz3GvJ6F4Sdn2LdOEMv-1">
          <mxGeometry width="80" relative="1" as="geometry">
            <mxPoint x="536.8900000000001" y="240.9000000000001" as="sourcePoint" />
            <mxPoint x="649.3" y="240.16000000000008" as="targetPoint" />
          </mxGeometry>
        </mxCell>
        <mxCell id="gCz3GvJ6F4Sdn2LdOEMv-23" value="" style="html=1;verticalAlign=bottom;endArrow=open;dashed=1;endSize=8;exitX=1.1;exitY=0.967;exitDx=0;exitDy=0;exitPerimeter=0;" edge="1" parent="gCz3GvJ6F4Sdn2LdOEMv-1" source="gCz3GvJ6F4Sdn2LdOEMv-27" target="gCz3GvJ6F4Sdn2LdOEMv-20">
          <mxGeometry relative="1" as="geometry">
            <mxPoint x="725" y="330" as="sourcePoint" />
            <mxPoint x="645" y="330" as="targetPoint" />
            <Array as="points" />
          </mxGeometry>
        </mxCell>
        <mxCell id="gCz3GvJ6F4Sdn2LdOEMv-24" value="" style="html=1;verticalAlign=bottom;endArrow=open;dashed=1;endSize=8;" edge="1" parent="gCz3GvJ6F4Sdn2LdOEMv-1">
          <mxGeometry relative="1" as="geometry">
            <mxPoint x="640" y="365" as="sourcePoint" />
            <mxPoint x="530" y="365" as="targetPoint" />
          </mxGeometry>
        </mxCell>
        <mxCell id="gCz3GvJ6F4Sdn2LdOEMv-25" value="" style="html=1;verticalAlign=bottom;endArrow=open;dashed=1;endSize=8;exitX=-0.3;exitY=0.989;exitDx=0;exitDy=0;exitPerimeter=0;" edge="1" parent="gCz3GvJ6F4Sdn2LdOEMv-1" source="gCz3GvJ6F4Sdn2LdOEMv-18" target="gCz3GvJ6F4Sdn2LdOEMv-16">
          <mxGeometry relative="1" as="geometry">
            <mxPoint x="340" y="280" as="sourcePoint" />
            <mxPoint x="260" y="280" as="targetPoint" />
          </mxGeometry>
        </mxCell>
        <mxCell id="gCz3GvJ6F4Sdn2LdOEMv-26" value="6 : MezoBeallit(a2)" style="html=1;verticalAlign=bottom;endArrow=block;entryX=0.6;entryY=0.133;entryDx=0;entryDy=0;entryPerimeter=0;" edge="1" parent="gCz3GvJ6F4Sdn2LdOEMv-1" source="gCz3GvJ6F4Sdn2LdOEMv-20" target="gCz3GvJ6F4Sdn2LdOEMv-27">
          <mxGeometry width="80" relative="1" as="geometry">
            <mxPoint x="1125" y="280" as="sourcePoint" />
            <mxPoint x="620" y="280" as="targetPoint" />
            <Array as="points" />
          </mxGeometry>
        </mxCell>
        <mxCell id="gCz3GvJ6F4Sdn2LdOEMv-27" value="" style="html=1;points=[];perimeter=orthogonalPerimeter;" vertex="1" parent="gCz3GvJ6F4Sdn2LdOEMv-1">
          <mxGeometry x="175" y="260" width="10" height="85" as="geometry" />
        </mxCell>
      </root>
    </mxGraphModel>
  </diagram>
  <diagram id="G0G24p2RXgEnbeuioRaw" name="Robot">
    <mxGraphModel dx="1422" dy="794" grid="1" gridSize="10" guides="1" tooltips="1" connect="1" arrows="1" fold="1" page="1" pageScale="1" pageWidth="1654" pageHeight="1169" math="0" shadow="0">
      <root>
        <mxCell id="0" />
        <mxCell id="1" parent="0" />
        <mxCell id="HHjcTZtQZg5d5xQJB9av-1" value="Robot mozog teleportkapun keresztÃ¼l" style="shape=umlFrame;whiteSpace=wrap;html=1;width=170;height=30;" vertex="1" parent="1">
          <mxGeometry x="50" y="50" width="700" height="430" as="geometry" />
        </mxCell>
        <mxCell id="HHjcTZtQZg5d5xQJB9av-2" value="r: Robot" style="shape=umlLifeline;perimeter=lifelinePerimeter;whiteSpace=wrap;html=1;container=1;collapsible=0;recursiveResize=0;outlineConnect=0;" vertex="1" parent="1">
          <mxGeometry x="130" y="90" width="100" height="360" as="geometry" />
        </mxCell>
        <mxCell id="HHjcTZtQZg5d5xQJB9av-3" value="a: Aszteroida" style="shape=umlLifeline;perimeter=lifelinePerimeter;whiteSpace=wrap;html=1;container=1;collapsible=0;recursiveResize=0;outlineConnect=0;" vertex="1" parent="1">
          <mxGeometry x="250" y="90" width="100" height="360" as="geometry" />
        </mxCell>
        <mxCell id="HHjcTZtQZg5d5xQJB9av-4" value="" style="html=1;points=[];perimeter=orthogonalPerimeter;" vertex="1" parent="HHjcTZtQZg5d5xQJB9av-3">
          <mxGeometry x="45" y="110" width="10" height="40" as="geometry" />
        </mxCell>
        <mxCell id="HHjcTZtQZg5d5xQJB9av-5" value="2. HajoElhagy (r)" style="html=1;verticalAlign=bottom;endArrow=block;entryX=0.733;entryY=0;entryDx=0;entryDy=0;entryPerimeter=0;" edge="1" parent="1" source="HHjcTZtQZg5d5xQJB9av-2" target="HHjcTZtQZg5d5xQJB9av-4">
          <mxGeometry x="0.0473" relative="1" as="geometry">
            <mxPoint x="175" y="190" as="sourcePoint" />
            <mxPoint as="offset" />
          </mxGeometry>
        </mxCell>
        <mxCell id="HHjcTZtQZg5d5xQJB9av-6" value="" style="html=1;verticalAlign=bottom;endArrow=open;dashed=1;endSize=8;exitX=1.2;exitY=0.987;exitDx=0;exitDy=0;exitPerimeter=0;" edge="1" parent="1" source="HHjcTZtQZg5d5xQJB9av-4" target="HHjcTZtQZg5d5xQJB9av-9">
          <mxGeometry relative="1" as="geometry">
            <mxPoint x="195" y="240" as="targetPoint" />
            <mxPoint x="352" y="232" as="sourcePoint" />
            <Array as="points">
              <mxPoint x="275" y="240" />
            </Array>
          </mxGeometry>
        </mxCell>
        <mxCell id="HHjcTZtQZg5d5xQJB9av-7" value="3. HajoErkezik (r)" style="html=1;verticalAlign=bottom;endArrow=block;exitX=1.2;exitY=0.419;exitDx=0;exitDy=0;exitPerimeter=0;" edge="1" parent="1" source="HHjcTZtQZg5d5xQJB9av-9" target="HHjcTZtQZg5d5xQJB9av-14">
          <mxGeometry relative="1" as="geometry">
            <mxPoint x="715" y="373.84615384615415" as="sourcePoint" />
          </mxGeometry>
        </mxCell>
        <mxCell id="HHjcTZtQZg5d5xQJB9av-8" value="" style="html=1;points=[];perimeter=orthogonalPerimeter;" vertex="1" parent="1">
          <mxGeometry x="175" y="310" width="10" height="30" as="geometry" />
        </mxCell>
        <mxCell id="HHjcTZtQZg5d5xQJB9av-9" value="" style="html=1;points=[];perimeter=orthogonalPerimeter;" vertex="1" parent="1">
          <mxGeometry x="175" y="170" width="10" height="250" as="geometry" />
        </mxCell>
        <mxCell id="HHjcTZtQZg5d5xQJB9av-10" value="1. Mozog(tp)" style="html=1;verticalAlign=bottom;endArrow=block;entryX=0.067;entryY=0.008;entryDx=0;entryDy=0;entryPerimeter=0;" edge="1" parent="1" source="HHjcTZtQZg5d5xQJB9av-13" target="HHjcTZtQZg5d5xQJB9av-9">
          <mxGeometry x="-0.0048" relative="1" as="geometry">
            <mxPoint x="40" y="172" as="sourcePoint" />
            <mxPoint as="offset" />
          </mxGeometry>
        </mxCell>
        <mxCell id="HHjcTZtQZg5d5xQJB9av-11" value="" style="html=1;verticalAlign=bottom;endArrow=open;dashed=1;endSize=8;exitX=0;exitY=0.996;exitDx=0;exitDy=0;exitPerimeter=0;" edge="1" parent="1" source="HHjcTZtQZg5d5xQJB9av-9" target="HHjcTZtQZg5d5xQJB9av-13">
          <mxGeometry x="-0.1098" y="-55" relative="1" as="geometry">
            <mxPoint x="50" y="398" as="targetPoint" />
            <Array as="points" />
            <mxPoint as="offset" />
          </mxGeometry>
        </mxCell>
        <mxCell id="HHjcTZtQZg5d5xQJB9av-12" value="" style="html=1;verticalAlign=bottom;endArrow=open;dashed=1;endSize=8;exitX=0.2;exitY=1.008;exitDx=0;exitDy=0;exitPerimeter=0;" edge="1" parent="1" source="HHjcTZtQZg5d5xQJB9av-15">
          <mxGeometry x="-0.0947" relative="1" as="geometry">
            <mxPoint x="187" y="401" as="targetPoint" />
            <mxPoint x="520" y="385" as="sourcePoint" />
            <mxPoint as="offset" />
          </mxGeometry>
        </mxCell>
        <mxCell id="HHjcTZtQZg5d5xQJB9av-13" value="Controller" style="shape=umlLifeline;participant=umlActor;perimeter=lifelinePerimeter;whiteSpace=wrap;html=1;container=1;collapsible=0;recursiveResize=0;verticalAlign=top;spacingTop=36;outlineConnect=0;" vertex="1" parent="1">
          <mxGeometry x="70" y="90" width="20" height="350" as="geometry" />
        </mxCell>
        <mxCell id="HHjcTZtQZg5d5xQJB9av-14" value="tp: Teleportkapu" style="shape=umlLifeline;perimeter=lifelinePerimeter;whiteSpace=wrap;html=1;container=1;collapsible=0;recursiveResize=0;outlineConnect=0;" vertex="1" parent="1">
          <mxGeometry x="370" y="90" width="100" height="370" as="geometry" />
        </mxCell>
        <mxCell id="HHjcTZtQZg5d5xQJB9av-15" value="" style="html=1;points=[];perimeter=orthogonalPerimeter;" vertex="1" parent="HHjcTZtQZg5d5xQJB9av-14">
          <mxGeometry x="45" y="180" width="10" height="130" as="geometry" />
        </mxCell>
        <mxCell id="HHjcTZtQZg5d5xQJB9av-16" value="par: Teleportkapu" style="shape=umlLifeline;perimeter=lifelinePerimeter;whiteSpace=wrap;html=1;container=1;collapsible=0;recursiveResize=0;outlineConnect=0;" vertex="1" parent="1">
          <mxGeometry x="490" y="90" width="100" height="360" as="geometry" />
        </mxCell>
        <mxCell id="HHjcTZtQZg5d5xQJB9av-17" value="" style="html=1;points=[];perimeter=orthogonalPerimeter;" vertex="1" parent="HHjcTZtQZg5d5xQJB9av-16">
          <mxGeometry x="45" y="200" width="10" height="100" as="geometry" />
        </mxCell>
        <mxCell id="HHjcTZtQZg5d5xQJB9av-18" value="a2: Aszteroida" style="shape=umlLifeline;perimeter=lifelinePerimeter;whiteSpace=wrap;html=1;container=1;collapsible=0;recursiveResize=0;outlineConnect=0;" vertex="1" parent="1">
          <mxGeometry x="610" y="90" width="100" height="360" as="geometry" />
        </mxCell>
        <mxCell id="HHjcTZtQZg5d5xQJB9av-19" value="" style="html=1;points=[];perimeter=orthogonalPerimeter;" vertex="1" parent="HHjcTZtQZg5d5xQJB9av-18">
          <mxGeometry x="45" y="210" width="10" height="80" as="geometry" />
        </mxCell>
        <mxCell id="HHjcTZtQZg5d5xQJB9av-20" value="2 : HajoTeleportErkezik(r)" style="html=1;verticalAlign=bottom;endArrow=block;" edge="1" parent="1" target="HHjcTZtQZg5d5xQJB9av-17">
          <mxGeometry width="80" relative="1" as="geometry">
            <mxPoint x="430" y="290" as="sourcePoint" />
            <mxPoint x="560" y="333" as="targetPoint" />
            <Array as="points">
              <mxPoint x="500" y="290" />
            </Array>
          </mxGeometry>
        </mxCell>
        <mxCell id="HHjcTZtQZg5d5xQJB9av-21" value="3 : HajoErkezik(r)" style="html=1;verticalAlign=bottom;endArrow=block;entryX=0.31;entryY=0.002;entryDx=0;entryDy=0;entryPerimeter=0;exitX=1.069;exitY=0.109;exitDx=0;exitDy=0;exitPerimeter=0;" edge="1" parent="1" source="HHjcTZtQZg5d5xQJB9av-17" target="HHjcTZtQZg5d5xQJB9av-19">
          <mxGeometry width="80" relative="1" as="geometry">
            <mxPoint x="670" y="230" as="sourcePoint" />
            <mxPoint x="850" y="230" as="targetPoint" />
          </mxGeometry>
        </mxCell>
        <mxCell id="HHjcTZtQZg5d5xQJB9av-22" value="" style="html=1;verticalAlign=bottom;endArrow=open;dashed=1;endSize=8;exitX=1.1;exitY=0.967;exitDx=0;exitDy=0;exitPerimeter=0;" edge="1" parent="1" source="HHjcTZtQZg5d5xQJB9av-26" target="HHjcTZtQZg5d5xQJB9av-19">
          <mxGeometry relative="1" as="geometry">
            <mxPoint x="735" y="340" as="sourcePoint" />
            <mxPoint x="655" y="340" as="targetPoint" />
            <Array as="points" />
          </mxGeometry>
        </mxCell>
        <mxCell id="HHjcTZtQZg5d5xQJB9av-23" value="" style="html=1;verticalAlign=bottom;endArrow=open;dashed=1;endSize=8;entryX=0.5;entryY=0.85;entryDx=0;entryDy=0;entryPerimeter=0;" edge="1" parent="1" target="HHjcTZtQZg5d5xQJB9av-17">
          <mxGeometry relative="1" as="geometry">
            <mxPoint x="650" y="375" as="sourcePoint" />
            <mxPoint x="670" y="380" as="targetPoint" />
          </mxGeometry>
        </mxCell>
        <mxCell id="HHjcTZtQZg5d5xQJB9av-24" value="" style="html=1;verticalAlign=bottom;endArrow=open;dashed=1;endSize=8;exitX=-0.3;exitY=0.989;exitDx=0;exitDy=0;exitPerimeter=0;" edge="1" parent="1" source="HHjcTZtQZg5d5xQJB9av-17" target="HHjcTZtQZg5d5xQJB9av-15">
          <mxGeometry relative="1" as="geometry">
            <mxPoint x="350" y="290" as="sourcePoint" />
            <mxPoint x="270" y="290" as="targetPoint" />
          </mxGeometry>
        </mxCell>
        <mxCell id="HHjcTZtQZg5d5xQJB9av-25" value="6 : MezoBeallit(a2)" style="html=1;verticalAlign=bottom;endArrow=block;entryX=0.6;entryY=0.133;entryDx=0;entryDy=0;entryPerimeter=0;" edge="1" parent="1" source="HHjcTZtQZg5d5xQJB9av-19" target="HHjcTZtQZg5d5xQJB9av-26">
          <mxGeometry width="80" relative="1" as="geometry">
            <mxPoint x="1135" y="290" as="sourcePoint" />
            <mxPoint x="630" y="290" as="targetPoint" />
            <Array as="points" />
          </mxGeometry>
        </mxCell>
        <mxCell id="HHjcTZtQZg5d5xQJB9av-26" value="" style="html=1;points=[];perimeter=orthogonalPerimeter;" vertex="1" parent="1">
          <mxGeometry x="185" y="325" width="10" height="30" as="geometry" />
        </mxCell>
      </root>
    </mxGraphModel>
  </diagram>
</mxfile>
